<?xml version="1.0" encoding="UTF-8"?>
<svg id="Layer_2" data-name="Layer 2" xmlns="http://www.w3.org/2000/svg" xmlns:xlink="http://www.w3.org/1999/xlink" viewBox="0 0 130 104">
  <defs>
    <style>
      .cls-1 {
        fill: #eadeda;
      }

      .cls-1, .cls-2 {
        stroke-width: 0px;
      }

      .cls-2 {
        fill: none;
      }

      .cls-3 {
        clip-path: url(#clippath);
      }
    </style>
    <clipPath id="clippath">
      <rect class="cls-2" width="130" height="104"/>
    </clipPath>
  </defs>
  <g id="layer">
    <g class="cls-3">
      <path class="cls-1" d="m71.5,25.29l-10.54-2.64c-1.32-.32-2.3-1.44-2.44-2.8-.14-1.36.57-2.66,1.77-3.27l8.29-4.14-8.78-6.58c-1.12-.83-1.58-2.3-1.14-3.64.45-1.34,1.69-2.21,3.09-2.21h32.5c6.13,0,11.92,2.88,15.6,7.8l11.7,15.6c1.26,1.69,1.95,3.74,1.95,5.85,0,5.38-4.37,9.75-9.75,9.75h-4.37c-3.45,0-6.76-1.36-9.2-3.8l-2.68-2.7h-6.5v4.37c0,5.04,2.6,9.73,6.87,12.41l21.65,13.53c6.52,4.08,10.48,11.21,10.48,18.91,0,12.31-9.97,22.28-22.3,22.28H6.57c-.67,0-1.34-.08-1.95-.28-1.87-.57-3.39-1.95-4.12-3.76-.28-.69-.45-1.4-.49-2.17-.04-.75.06-1.48.26-2.17.57-1.87,1.95-3.39,3.78-4.14.61-.24,1.26-.41,1.93-.45l82.04-7.33c1.69-.14,2.99-1.56,2.99-3.27,0-.87-.35-1.71-.95-2.32l-9.02-9.02c-6.09-6.09-9.53-14.36-9.53-22.97v-20.82Zm32.5-10.6v-.12.12Zm-.26,1.5l-9.43-2.36c-.04.26-.06.53-.06.79,0,2.7,2.17,4.88,4.88,4.88,2.15,0,3.96-1.38,4.61-3.31Zm-77.15,7.48c3.31-2.95,8.21-3.29,11.88-.83l26.53,17.67v5.61c0,6.66,1.71,13.16,4.88,18.89H22.75c-1.36,0-2.58-.85-3.05-2.11-.47-1.26-.1-2.7.93-3.6l14.1-12.11-31,4.77c-1.42.22-2.82-.53-3.43-1.83-.61-1.3-.3-2.86.77-3.82l25.51-22.65Z"/>
    </g>
  </g>
</svg>