<?xml version="1.0" encoding="UTF-8"?>
<svg id="Layer_2" data-name="Layer 2" xmlns="http://www.w3.org/2000/svg" xmlns:xlink="http://www.w3.org/1999/xlink" viewBox="0 0 109 124.36">
  <defs>
    <style>
      .cls-1 {
        fill: #eadeda;
      }

      .cls-1, .cls-2 {
        stroke-width: 0px;
      }

      .cls-2 {
        fill: none;
      }

      .cls-3 {
        clip-path: url(#clippath);
      }
    </style>
    <clipPath id="clippath">
      <rect class="cls-2" width="109" height="124.36"/>
    </clipPath>
  </defs>
  <g id="layer">
    <g class="cls-3">
      <path class="cls-1" d="m46.71,0c4.31,0,7.79,3.47,7.79,7.77v27.2h-15.57V7.77c0-4.3,3.48-7.77,7.79-7.77ZM15.57,15.55c0-4.3,3.48-7.77,7.79-7.77s7.79,3.47,7.79,7.77v19.43h-15.57V15.55Zm46.71,0c0-4.3,3.48-7.77,7.79-7.77s7.79,3.47,7.79,7.77v23.32c0,4.3-3.48,7.77-7.79,7.77s-7.79-3.47-7.79-7.77V15.55Zm23.36,15.55c0-4.3,3.48-7.77,7.79-7.77s7.79,3.47,7.79,7.77v15.55c0,4.3-3.48,7.77-7.79,7.77s-7.79-3.47-7.79-7.77v-15.55Zm-23.36,21.37v-.15c2.29,1.31,4.94,2.09,7.79,2.09,3.21,0,6.18-.97,8.66-2.62,2.12,6.05,7.91,10.4,14.7,10.4,2.85,0,5.5-.75,7.79-2.09v2.09c0,12.7-6.11,24-15.57,31.09v23.32c0,4.3-3.48,7.77-7.79,7.77h-38.93c-4.31,0-7.79-3.47-7.79-7.77v-19.04c-4.21-1.92-8.08-4.57-11.41-7.89l-2.82-2.82c-5.84-5.83-9.12-13.75-9.12-21.98v-6.56c0-8.57,6.98-15.55,15.57-15.55h21.41c5.38,0,9.73,4.35,9.73,9.72s-4.36,9.72-9.73,9.72h-13.62c-2.14,0-3.89,1.75-3.89,3.89s1.75,3.89,3.89,3.89h13.62c9.68,0,17.52-7.82,17.52-17.49Z"/>
    </g>
  </g>
</svg>