<?xml version="1.0" encoding="UTF-8"?>
<svg id="layer" xmlns="http://www.w3.org/2000/svg" viewBox="0 0 275.98 108.07">
  <defs>
    <style>
      .cls-1 {
        fill: #eadeda;
        stroke-width: 0px;
      }

      .cls-2 {
        fill: none;
        stroke: #eadeda;
        stroke-linecap: round;
        stroke-width: 10px;
      }
    </style>
  </defs>
  <path class="cls-1" d="m68.3,65.93c.6-1.2.9-2.7.9-4.2s-.5-3-1.1-4.2l1.8.3c1.2.2,3.5,1.7,3.5,3.9,0,2.7-2.7,3.9-5.1,4.2Zm0-31.3c-5.6-.8-14.1,3-18.5,8.4.9-3.6,4.8-9.5,9.6-12.2,0,0-2.4,3-1.4,3.5,1.5.8,5.4-5.4,10.5-5.6,0,0-3.8,1.8-3,3.2.6.9,3.2-1.2,7.5-1.2,5.4,0,10.2,3.3,12.5,5.9-3.8-1.1-10.8.8-12.9,2.6-3.2-2.4-9.3-2.1-12.8,2-4.4,5-7.1,10.8-7.8,12.6-1.5-1.2-2.9-2.3-3.8-3-.8-.6-1.5-.9-2.3-1.2,4.2-5.9,12.6-14.6,22.4-15ZM9.7,17.73c-.6-7.1,2.7-11,4.2-12.6C17.2,1.63,21.7-.27,28.5.03c10.5.6,15.6,7.8,15.6,15.5,0,4.1-2.1,9.5-5.1,12.9-.2-.2-.5-.5-.6-.6-2-1.8-4.8-4.1-6.6-6.8,3.6-5.3,2.1-13.5-4.4-13.5-4.1,0-7.4,4.2-6,9.3-.6,2.3-.9,5.3-.5,7.5-4.7-2.4-6.2-5.6-7.1-8.4-1.2,2.4-2,5.7-1.1,8.9.2.3-2.5-2.1-3-7.1Zm2.7,12.8c-.5,1.7-6.6,3.5-9.6,6.5,4.5-.9,6.6-.2,7.4,1.7.5,1.4-.2,3.2-.5,5.3,1.5-1.7,6.6-5.1,10.4-5.9-.9-.3-3.2-.8-4.1-.8,2.7-3.2,8.7-4.2,12-3.5-2.1-.2-6.3,1.1-8,2.4,1.5.3,2.9.6,4.1,1.1-2,.8-4.5,3.2-5.4,5.7,2.6-1.8,7.8-1.4,8.7,2.4.6,2.6-1.2,4.8-2.1,5.3.8.2,2.6,0,3.3-.5-.3,1.1-1.8,2.9-2.9,3.2,2.7,0,6.6-1.8,7.7-4.4,0,0-1.7.6-2.4-.2-.8-.8.3-4.1.3-4.1,0,0-1.1,1.4-2,.6-.9-.9.3-3.9.8-4.5-.9-.3-3.3-.6-4.4-.5,3-1.1,9.8-1.7,10.5-.3.6,1.1-.9,3.2-.9,3.2,1.2-.2,4.7,0,5.9,1.4,1.2,1.5.5,3.5.5,3.5,2.7-1.4,5.1-5.6,4.5-9.8-.3.9-1.5,2.3-2.7,2.6.2-1.4-.9-2.1-1.8-2.4.5-2.6-.6-5.9-4.4-9.5-3.2-3.2-9.2-7.4-8.9-12.9-.9,1.2-1.7,4.7-.8,6.6,2.6,3,8.1,6.3,9.5,11.4-2.4-6-14.1-10.7-13.7-18.9-1.5,1.5-2.4,7.4-1.2,10.4,2.3,1.4,4.2,3.6,4.5,5.7-2.1-4.8-10.7-5.7-13.1-11.4-.6,2.1-.3,4.7.9,6.3,0,0-2.1-.8-6.6-.6,1.6.5,4.8,3.2,4.5,4.9Zm24.3,6.9c-2.6,0-3.3-2-3.9-4.1,3,1.3,3.9,4.1,3.9,4.1Zm32.8,39.2c1.8,1.7,6.2,2.9,8.4,1.8-1.4,2.4-7.7,5.7-13.5,4.2-5.6-1.5-8.1-6.8-8.1-10.2-2.7,2.7-2,6.9,0,8.7-2.1-.6-5.4-2.9-6-6.9-.5-3.5,1.5-7.5-2.1-10.7-2.1-2-5.6-4.7-7.7-6.3-4.5-3.5-2.9-6.2-3.8-8-.8-1.5-2.7-2.3-3.8-3.6-1.2-1.4-1.1-3.3-.5-4.4-.2,1.5.9,2.7,2.4,3.3,1.7.6,3,.2,4.5.9,1.7,1.1.9,3.6,2.1,4.7,1.1.8,3.9-.3,6.2,1.7,2.4,2,7.7,6.3,9.9,8.1,4.1,3.3,8.3-.5,6.9-4.4,4.2,2.4,4.7,9.3,1.2,11.7,3.3.8,9.2-.8,9.2-5.4,0-2.9-2.7-5-4.5-5.3,6.8-.6,12.6,4.1,12.6,10.1-.2,6.1-6.4,10.9-13.4,10Zm-22.4-12.3l.5.5c-3.6,7.4-10.4,16.8-23.3,16.8-4.7,0-8.9-1.7-11.9-3.9-1.1-.8-2-1.7-2.7-2.7h0c-.5-.6-.9-1.1-1.4-1.7-.6-.8-1.1-.8-1.4-.3-.6.9.5,3.8.5,3.8-10.2-9.6-5-23.7-4.8-24.3.6-1.8,0-2.1-.6-1.8-.9.3-2,1.8-2,1.8.8-8.6,8.7-13.8,8.7-13.8l.2.2c.9,1.4-.5,3-.6,8.4,1.5-2.1,7.4-6.2,10.7-7.4-1.1,1.4-2,3.3-2,6.2,0,0,2.4-2.7,5.4-2.7.8,0,1.5.2,2.1.5-11.4,11.1-6.6,24.9,3,24.9,5.4,0,10.8-6,13.1-10.1,1.7,1.5,4.5,3.9,6.5,5.6Z"/>
  <path class="cls-1" d="m236.51,107.24c-24.18,0-69.75,2.29-73.31-.76-3.56-3.05-2.29-19.86,0-21.89,2.29-2.04,6.87-1.27,12.47-1.78,4.28-6.92,15.02-11.2,19.86-12.47h37.68c1.61.59,4.84,2.8,4.84,6.87s-3.22,5.43-4.84,5.6h-18.33c-1.27,0-3.05.76-3.05,2.8s.76,3.56,2.55,3.56h25.97l25.2-18.33c1.78-.59,6.01-1.02,8.65,2.04,2.65,3.05,1.78,7.72,1.02,9.67-7.72,5.69-24.13,17.82-28,20.87-3.87,3.05-8.74,3.82-10.69,3.82Z"/>
  <path class="cls-2" d="m213.35,61.68s-1.78-10.44,0-10.44,15.27,2.55,23.93-4.07c8.65-6.62,11.71-18.07,5.09-26.73-6.62-8.66-21.38-8.15-33.09-8.15-11.71,0-15.02,5.6-15.02,10.44s3.56,8.66,25.2,8.66"/>
</svg>