<?xml version="1.0" encoding="UTF-8"?>
<svg id="Layer_2" data-name="Layer 2" xmlns="http://www.w3.org/2000/svg" viewBox="0 0 115 100.78">
  <defs>
    <style>
      .cls-1 {
        fill: #eadeda;
        stroke-width: 0px;
      }

      .cls-2 {
        fill: none;
        stroke: #eadeda;
        stroke-linecap: round;
        stroke-width: 10px;
      }
    </style>
  </defs>
  <g id="layer">
    <path class="cls-1" d="m75.54,99.95c-24.18,0-69.75,2.29-73.31-.76-3.56-3.05-2.29-19.86,0-21.89,2.29-2.04,6.87-1.27,12.47-1.78,4.28-6.92,15.02-11.2,19.86-12.47h37.68c1.61.59,4.84,2.8,4.84,6.87s-3.22,5.43-4.84,5.6h-18.33c-1.27,0-3.05.76-3.05,2.8s.76,3.56,2.55,3.56h25.97l25.2-18.33c1.78-.59,6.01-1.02,8.65,2.04,2.65,3.05,1.78,7.72,1.02,9.67-7.72,5.69-24.13,17.82-28,20.87-3.87,3.05-8.74,3.82-10.69,3.82Z"/>
    <path class="cls-2" d="m52.37,54.39s-1.78-10.44,0-10.44,15.27,2.55,23.93-4.07c8.65-6.62,11.71-18.07,5.09-26.73-6.62-8.66-21.38-8.15-33.09-8.15-11.71,0-15.02,5.6-15.02,10.44s3.56,8.66,25.2,8.66"/>
  </g>
</svg>