<?xml version="1.0" encoding="UTF-8"?>
<svg id="Layer_2" data-name="Layer 2" xmlns="http://www.w3.org/2000/svg" viewBox="0 0 115 114.06">
  <defs>
    <style>
      .cls-1 {
        fill: #eadeda;
        stroke-width: 0px;
      }
    </style>
  </defs>
  <g id="layer">
    <path class="cls-1" d="m86.97,5.36c-2.03,1.16-46.96,46.96-48.7,48.99l22.9,22.32c16.72-16.62,50.32-50.32,51.02-52.18.87-2.32,4.35-22.03,2.03-24.06-2.32-2.03-25.22,3.77-27.25,4.93Z"/>
    <path class="cls-1" d="m44.64,72.9l-22.9-23.19-7.83,6.96c-2.09,1.86,8.21,15.65,13.62,22.32-2.51,2.9-8.23,8.99-11.02,10.15-2.78,1.16-7.73-1.45-9.86-2.9-2.22,1.35-6.67,4.99-6.67,8.7s0,0,8.99,10.73l35.66-32.76Z"/>
    <path class="cls-1" d="m41.16,69.42l23.19,22.9-6.96,7.83c-1.86,2.09-15.65-8.21-22.32-13.62-2.9,2.51-8.99,8.23-10.15,11.02-1.16,2.78,1.45,7.73,2.9,9.86-1.35,2.22-4.99,6.67-8.7,6.67s0,0-10.73-8.99l32.76-35.66Z"/>
  </g>
</svg>